<svg xmlns="http://www.w3.org/2000/svg" width="56.956" height="56.956" viewBox="0 0 56.956 56.956"><g transform="translate(0 0)"><path d="M154.638,352.522q-.594.111-.519.556t.667.3q.594-.148.519-.519Q155.231,352.448,154.638,352.522Z" transform="translate(-134.095 -306.727)" fill="#fff"/><path d="M137.923,354.818c-.4,0-.593.135-.593.408q0,.482.63.408.593,0,.594-.408Q138.554,354.744,137.923,354.818Z" transform="translate(-119.494 -308.726)" fill="#fff"/><path d="M119.44,352.019q-.148.408.482.556.556.222.7-.223.111-.407-.482-.593C119.774,351.66,119.539,351.746,119.44,352.019Z" transform="translate(-103.903 -306.039)" fill="#fff"/><path d="M53.823,3.133A10.286,10.286,0,0,0,46.277,0h-35.6A10.288,10.288,0,0,0,3.133,3.133,10.288,10.288,0,0,0,0,10.679v35.6a10.286,10.286,0,0,0,3.133,7.546,10.287,10.287,0,0,0,7.546,3.133h8.306a10.028,10.028,0,0,0,1.223-.055,1.435,1.435,0,0,0,.816-.483,1.727,1.727,0,0,0,.408-1.242q0-.111-.019-2.522t-.019-3.82l-.853.148a10.914,10.914,0,0,1-2.058.13,15.836,15.836,0,0,1-2.577-.259,5.777,5.777,0,0,1-2.485-1.112,4.707,4.707,0,0,1-1.631-2.281l-.371-.853a9.263,9.263,0,0,0-1.168-1.89,4.475,4.475,0,0,0-1.613-1.409l-.26-.185a2.727,2.727,0,0,1-.482-.445,2.06,2.06,0,0,1-.334-.519q-.111-.26.185-.427a2.411,2.411,0,0,1,1.075-.166l.741.111a5.406,5.406,0,0,1,1.836.89,5.984,5.984,0,0,1,1.8,1.928,6.535,6.535,0,0,0,2.058,2.317,4.363,4.363,0,0,0,2.429.8,10.534,10.534,0,0,0,2.114-.185,7.383,7.383,0,0,0,1.669-.557,6.01,6.01,0,0,1,1.817-3.82,25.392,25.392,0,0,1-3.8-.668A15.148,15.148,0,0,1,16,38.933a9.98,9.98,0,0,1-2.985-2.485,11.945,11.945,0,0,1-1.946-3.893,18.519,18.519,0,0,1-.76-5.563,10.816,10.816,0,0,1,2.93-7.639A9.969,9.969,0,0,1,13.5,11.79a5.2,5.2,0,0,1,3.189.5,22.363,22.363,0,0,1,3.1,1.428q.983.593,1.576,1a26.772,26.772,0,0,1,14.24,0l1.409-.89A19.948,19.948,0,0,1,40.419,12.2a4.857,4.857,0,0,1,3-.408,9.871,9.871,0,0,1,.3,7.564,10.817,10.817,0,0,1,2.93,7.639,18.7,18.7,0,0,1-.76,5.581,11.456,11.456,0,0,1-1.965,3.894,10.369,10.369,0,0,1-3,2.466,15.128,15.128,0,0,1-3.486,1.446,25.374,25.374,0,0,1-3.8.668q1.927,1.668,1.927,5.265v8.863a2.387,2.387,0,0,0,.185,1.02,1.024,1.024,0,0,0,.594.538,3.286,3.286,0,0,0,.724.185,8.325,8.325,0,0,0,.909.037h8.306a10.7,10.7,0,0,0,10.679-10.68v-35.6A10.288,10.288,0,0,0,53.823,3.133Z" fill="#fff"/><path d="M86.033,318.6q-.259.185.074.593.371.371.594.111.259-.185-.075-.593Q86.256,318.374,86.033,318.6Z" transform="translate(-74.761 -277.14)" fill="#fff"/><path d="M77.2,311.277q-.111.26.26.445a.317.317,0,0,0,.482-.074q.111-.26-.26-.446Q77.314,311.091,77.2,311.277Z" transform="translate(-67.153 -270.748)" fill="#fff"/><path d="M94.527,329.72q-.334.185,0,.667t.63.26q.334-.26,0-.7C94.96,329.622,94.749,329.547,94.527,329.72Z" transform="translate(-82.105 -286.818)" fill="#fff"/><path d="M104.725,342.218c-.223.2-.174.432.148.7q.444.444.741.11.3-.3-.148-.7Q105.022,341.885,104.725,342.218Z" transform="translate(-91.005 -297.647)" fill="#fff"/></g></svg>