<svg xmlns="http://www.w3.org/2000/svg" width="56.956" height="56.956"><g fill="#fff"><path d="M20.543 45.795q-.594.111-.519.556t.667.3q.594-.148.519-.519-.074-.411-.667-.337zM18.429 46.092c-.4 0-.593.135-.593.408q0 .482.63.408.593 0 .594-.408 0-.482-.631-.408zM15.537 45.98q-.148.408.482.556.556.222.7-.223.111-.407-.482-.593c-.366-.099-.601-.013-.7.26z"/><path d="M53.823 3.133A10.286 10.286 0 0 0 46.277 0h-35.6a10.288 10.288 0 0 0-7.544 3.133A10.288 10.288 0 0 0 0 10.679v35.6a10.286 10.286 0 0 0 3.133 7.546 10.287 10.287 0 0 0 7.546 3.133h8.306a10.028 10.028 0 0 0 1.223-.055 1.435 1.435 0 0 0 .816-.483 1.727 1.727 0 0 0 .408-1.242l-.019-2.522q-.019-2.411-.019-3.82l-.853.148a10.914 10.914 0 0 1-2.058.13 15.836 15.836 0 0 1-2.577-.259 5.777 5.777 0 0 1-2.485-1.112 4.707 4.707 0 0 1-1.631-2.281l-.371-.853a9.263 9.263 0 0 0-1.168-1.89 4.475 4.475 0 0 0-1.613-1.409l-.26-.185a2.727 2.727 0 0 1-.482-.445 2.06 2.06 0 0 1-.334-.519q-.111-.26.185-.427a2.411 2.411 0 0 1 1.075-.166l.741.111a5.406 5.406 0 0 1 1.836.89 5.984 5.984 0 0 1 1.8 1.928 6.535 6.535 0 0 0 2.058 2.317 4.363 4.363 0 0 0 2.429.8 10.534 10.534 0 0 0 2.114-.185 7.383 7.383 0 0 0 1.669-.557 6.01 6.01 0 0 1 1.817-3.82 25.392 25.392 0 0 1-3.8-.668A15.148 15.148 0 0 1 16 38.933a9.98 9.98 0 0 1-2.985-2.485 11.945 11.945 0 0 1-1.946-3.893 18.519 18.519 0 0 1-.76-5.563 10.816 10.816 0 0 1 2.93-7.639 9.969 9.969 0 0 1 .261-7.563 5.2 5.2 0 0 1 3.189.5 22.363 22.363 0 0 1 3.1 1.428q.983.593 1.576 1a26.772 26.772 0 0 1 14.24 0l1.409-.89a19.948 19.948 0 0 1 3.405-1.628 4.857 4.857 0 0 1 3-.408 9.871 9.871 0 0 1 .3 7.564 10.817 10.817 0 0 1 2.93 7.639 18.7 18.7 0 0 1-.76 5.581 11.456 11.456 0 0 1-1.965 3.894 10.369 10.369 0 0 1-3 2.466 15.128 15.128 0 0 1-3.486 1.446 25.374 25.374 0 0 1-3.8.668q1.927 1.668 1.927 5.265v8.863a2.387 2.387 0 0 0 .185 1.02 1.024 1.024 0 0 0 .594.538 3.286 3.286 0 0 0 .724.185 8.325 8.325 0 0 0 .909.037h8.306a10.7 10.7 0 0 0 10.679-10.68v-35.6a10.288 10.288 0 0 0-3.139-7.545z"/><path d="M11.272 41.46q-.259.185.074.593.371.371.594.111.259-.185-.075-.593-.37-.337-.593-.111zM10.047 40.529q-.111.26.26.445a.317.317 0 0 0 .482-.074q.111-.26-.26-.446-.368-.111-.482.075zM12.422 42.902q-.334.185 0 .667t.63.26q.334-.26 0-.7c-.197-.325-.408-.4-.63-.227zM13.72 44.571c-.223.2-.174.432.148.7q.444.444.741.11.3-.3-.148-.7-.444-.443-.741-.11z"/></g></svg>