<svg xmlns="http://www.w3.org/2000/svg" width="57.169" height="57.169"><path d="M52.947 0H4.224A4.161 4.161 0 0 0-.002 4.1v48.972a4.163 4.163 0 0 0 4.224 4.1h48.725a4.161 4.161 0 0 0 4.221-4.1V4.1A4.16 4.16 0 0 0 52.947 0zM17.332 47.855H8.698V22.043h8.638zm-4.318-29.338h-.058a4.46 4.46 0 0 1-4.774-4.461c0-2.53 1.933-4.457 4.887-4.457a4.476 4.476 0 0 1 4.829 4.457c0 2.481-1.875 4.461-4.884 4.461zm35.455 29.338h-8.635v-13.81c0-3.47-1.251-5.838-4.374-5.838a4.718 4.718 0 0 0-4.43 3.14 5.769 5.769 0 0 0-.288 2.091v14.416h-8.633s.113-23.39 0-25.811h8.635V25.7a8.575 8.575 0 0 1 7.78-4.267c5.683 0 9.945 3.687 9.945 11.619zM30.688 25.784c.015-.024.035-.053.056-.082v.082z" fill="#fff"/></svg>