<svg xmlns="http://www.w3.org/2000/svg" width="57.169" height="57.169" viewBox="0 0 57.169 57.169"><path d="M52.949,0H4.226A4.161,4.161,0,0,0,0,4.1V53.072a4.163,4.163,0,0,0,4.224,4.1H52.949a4.161,4.161,0,0,0,4.221-4.1V4.1A4.16,4.16,0,0,0,52.949,0ZM17.334,47.855H8.7V22.043h8.638ZM13.016,18.517h-.058a4.46,4.46,0,0,1-4.774-4.461c0-2.53,1.933-4.457,4.887-4.457A4.476,4.476,0,0,1,17.9,14.056C17.9,16.537,16.025,18.517,13.016,18.517ZM48.471,47.855H39.836V34.045c0-3.47-1.251-5.838-4.374-5.838a4.718,4.718,0,0,0-4.43,3.14,5.769,5.769,0,0,0-.288,2.091V47.854H22.111s.113-23.39,0-25.811h8.635V25.7a8.575,8.575,0,0,1,7.78-4.267c5.683,0,9.945,3.687,9.945,11.619ZM30.69,25.784c.015-.024.035-.053.056-.082v.082Z" transform="translate(-0.002 0)" fill="#fff"/></svg>