<svg xmlns="http://www.w3.org/2000/svg" width="57.664" height="57.664" viewBox="0 0 57.664 57.664"><g transform="translate(0 0)"><path d="M51.9,0H5.766A5.783,5.783,0,0,0,0,5.766V51.9a5.783,5.783,0,0,0,5.766,5.766H51.9A5.783,5.783,0,0,0,57.664,51.9V5.766A5.783,5.783,0,0,0,51.9,0ZM45.266,21.047c-.288,13.263-8.65,22.489-21.336,23.066-5.19.288-8.938-1.442-12.4-3.46a15.306,15.306,0,0,0,11.244-3.172A7.789,7.789,0,0,1,15.569,32a11.629,11.629,0,0,0,3.172,0c-3.46-1.153-5.766-3.172-6.055-7.785a5.812,5.812,0,0,0,3.172.865c-2.595-1.442-4.325-6.92-2.307-10.38,3.748,4.036,8.361,7.5,15.858,8.073-2.018-8.073,8.938-12.4,13.263-6.92a19.424,19.424,0,0,0,4.9-1.73A8.152,8.152,0,0,1,44.4,18.452,16.527,16.527,0,0,0,48.438,17.3C48.149,18.741,46.708,19.894,45.266,21.047Z" fill="#fff"/></g></svg>